<?xml version="1.0" encoding="utf-8"?>
<!-- Generator: Adobe Illustrator 16.0.2, SVG Export Plug-In . SVG Version: 6.00 Build 0)  -->
<!DOCTYPE svg PUBLIC "-//W3C//DTD SVG 1.1//EN" "http://www.w3.org/Graphics/SVG/1.1/DTD/svg11.dtd">
<svg version="1.1" id="Layer_1" xmlns="http://www.w3.org/2000/svg" xmlns:xlink="http://www.w3.org/1999/xlink" x="0px" y="0px"
	 width="595.28px" height="841.89px" viewBox="0 0 595.28 841.89" enable-background="new 0 0 595.28 841.89" xml:space="preserve">
<g>
	<path fill="#F32956" d="M524.094,457.52c32.104,33.141,48.162,72.93,48.162,119.375c0,38.939-9.912,73.443-29.717,103.494
		c-19.819,30.068-48.158,53.457-85.05,70.191c-36.888,16.744-80.612,25.104-131.159,25.104c-18.442,0-34.166-0.338-47.134-1.025
		c-43.725-1.357-86.762-2.049-129.111-2.049c-56.022,0-98.371,1.025-127.061,3.074v-20.492c24.592-1.361,42.523-4.1,53.796-8.199
		c11.271-4.1,18.956-11.941,23.054-23.566c4.101-11.609,6.148-30.389,6.148-56.359V158.823c0-25.953-2.048-44.734-6.148-56.358
		c-4.098-11.607-11.783-19.469-23.054-23.567c-11.273-4.098-29.205-6.821-53.796-8.198V50.206
		c28.69,2.05,70.351,3.075,125.011,3.075l110.665-1.024c12.972-0.672,27.667-1.025,44.063-1.025
		c69.68,0,123.121,14.697,160.363,44.061c37.226,29.381,55.846,68.318,55.846,116.815c0,39.627-12.474,75.154-37.4,106.567
		c-24.945,31.429-64.395,55.333-118.354,71.729v2.05C438.355,402.699,491.979,424.395,524.094,457.52z M229.497,77.873
		c-10.6,4.787-17.93,13.321-22.029,25.617c-4.1,12.295-6.15,30.742-6.15,55.333v231.58h68.654c56.005,0,95.122-15.196,117.329-45.6
		c22.188-30.389,33.301-70.864,33.301-121.425c0-51.234-11.271-89.484-33.813-114.763C364.242,83.349,327.693,70.7,277.146,70.7
		C255.964,70.7,240.08,73.101,229.497,77.873z M469.786,572.795c0-53.955-14.522-94.941-43.547-122.963
		c-29.046-28-75.317-42.012-138.847-42.012h-86.075v259.247c0,24.592,2.05,42.701,6.15,54.309c4.1,11.625,11.43,19.646,22.029,24.08
		c10.583,4.453,26.805,6.662,48.675,6.662C405.902,752.117,469.786,692.35,469.786,572.795z"/>
</g>
</svg>
